<?xml version="1.0" encoding="UTF-8" standalone="no"?>
<!DOCTYPE svg PUBLIC "-//W3C//DTD SVG 1.1//EN" "http://www.w3.org/Graphics/SVG/1.1/DTD/svg11.dtd">
<svg width="256px" height="256px" version="1.1" xmlns="http://www.w3.org/2000/svg" xmlns:xlink="http://www.w3.org/1999/xlink" xml:space="preserve" xmlns:serif="http://www.serif.com/" style="fill-rule:evenodd;clip-rule:evenodd;stroke-linejoin:round;stroke-miterlimit:2;">
    <rect id="Prancheta1" x="0" y="0" width="256" height="256" style="fill:none;"/>
    <g id="Prancheta11" serif:id="Prancheta1">
        <g id="Camada1">
            <g transform="matrix(1.03932,0,0,1.03932,-5.03347,-5.03347)">
                <path d="M110.773,24.376C101.92,41.685 91.092,66.464 91.092,84.104C91.092,118.382 102.306,173.219 105.448,187.836C105.45,187.844 105.451,187.852 105.453,187.86C105.573,188.407 105.475,188.98 105.18,189.456L84.12,223.441C48.041,206.813 22.967,170.312 22.967,128C22.967,75.897 60.987,32.605 110.773,24.376ZM145.227,24.376C195.013,32.605 233.033,75.897 233.033,128C233.033,170.312 207.959,206.813 171.88,223.441L150.82,189.456C150.525,188.98 150.427,188.407 150.547,187.86C150.549,187.852 150.55,187.844 150.552,187.836C153.694,173.219 164.908,118.382 164.908,84.104C164.908,66.464 154.08,41.685 145.227,24.376Z" style="fill:rgb(96,0,255);"/>
            </g>
            <g transform="matrix(1.03932,0,0,1.03932,-5.03347,-5.03347)">
                <path d="M134.837,232.507C133.306,234.784 130.743,236.149 128,236.149C125.257,236.149 122.694,234.784 121.163,232.507C119.372,229.842 118.732,227.699 118.732,227.699L98.092,248.27L76.969,248.27C76.969,248.27 103.616,205.269 111.13,193.143C112.383,191.12 112.8,188.69 112.292,186.365C109.194,171.955 98.092,117.898 98.092,84.104C98.092,55.607 128,7.73 128,7.73C128,7.73 157.908,55.607 157.908,84.104C157.908,117.898 146.806,171.955 143.708,186.365C143.2,188.69 143.617,191.12 144.87,193.143C152.384,205.269 179.031,248.27 179.031,248.27L157.908,248.27L137.268,227.699C137.268,227.699 136.628,229.842 134.837,232.507ZM128,56.869C136.059,56.869 142.602,63.413 142.602,71.472C142.602,79.531 136.059,86.074 128,86.074C119.941,86.074 113.398,79.531 113.398,71.472C113.398,63.413 119.941,56.869 128,56.869Z" style="fill:rgb(255,169,0);"/>
            </g>
        </g>
    </g>
</svg>
