<?xml version="1.0" encoding="UTF-8" standalone="no"?>
<!DOCTYPE svg PUBLIC "-//W3C//DTD SVG 1.1//EN" "http://www.w3.org/Graphics/SVG/1.1/DTD/svg11.dtd">
<svg width="100%" height="100%" viewBox="0 0 225 226" version="1.1" xmlns="http://www.w3.org/2000/svg" xmlns:xlink="http://www.w3.org/1999/xlink" xml:space="preserve" xmlns:serif="http://www.serif.com/" style="fill-rule:evenodd;clip-rule:evenodd;stroke-linejoin:round;stroke-miterlimit:2;">
    <g transform="matrix(1,0,0,1,-848,-92)">
        <g transform="matrix(0.1,0,0,-0.1,-39.8376,1860.43)">
            <g id="instagram" transform="matrix(10,0,0,-10,0.300429,21142)">
                <path d="M990.5,347c-47.7,4.1 -87.2,37.5 -99.5,84c-3.1,11.8 -3.9,37.2 -1.6,48.8c6.5,32.1 24.8,58.5 52,75.3c44.1,27.1 101.3,20.2 138.1,-16.6c21.3,-21.3 32.7,-48.5 32.7,-78.5c0.1,-24.9 -6.8,-47 -20.8,-66.6c-5.5,-7.8 -17.9,-20.2 -26.1,-26c-21.2,-15.1 -48.7,-22.6 -74.8,-20.4Zm52.6,43.9c16.5,5.3 24.9,16.5 27,36.1c1.6,14.6 0.6,66.7 -1.3,73.5c-4.8,16.5 -16.2,26 -34.1,28.4c-10.1,1.4 -57.7,1.4 -68.7,0.1c-18.9,-2.4 -30.7,-12.4 -35.1,-30c-1.1,-4.2 -1.4,-13.9 -1.4,-40c-0,-36.7 0.4,-40.8 5.1,-50.1c3.2,-6.4 12.1,-14.3 19.2,-16.9c8.6,-3.3 16.8,-3.9 51.2,-3.6c28.9,0.3 32,0.5 38.1,2.5Zm-77.3,11.2c-13.3,1.9 -20.5,9.3 -22.7,23c-1.4,8.5 -1.4,60.9 -0,68.4c2,10.7 6.3,16.5 15.4,20.7c4.9,2.3 5.5,2.3 41.5,2.3c36,0 36.6,0 41.5,-2.3c9.1,-4.2 13.4,-10 15.4,-20.7c1.4,-7.5 1.4,-59.9 0.1,-68.4c-2.3,-14.1 -9.4,-21 -23.7,-23.1c-8.1,-1.2 -59.4,-1.1 -67.5,0.1Zm50.4,24.7c7.3,3.6 12.3,8.6 16.6,16.7c2.4,4.5 2.7,6 2.7,15.5c-0,9.7 -0.2,11 -3,16.3c-5.1,10.3 -15.5,17.7 -26.9,19.5c-15.9,2.5 -31.4,-5.7 -38.7,-20.5c-2.1,-4.1 -2.4,-6.3 -2.4,-15.3c-0,-9.5 0.3,-11 2.7,-15.6c5,-9.5 9.9,-14 19.7,-18.1c4.7,-2 7,-2.3 14.1,-2.1c7.3,0.3 9.5,0.8 15.2,3.6Zm-20.2,9.2c-6.5,1.1 -12.3,5.1 -15.6,10.8c-3.9,6.5 -4.7,11.4 -3.1,17.9c3.4,12.9 16.4,20.6 28.9,16.9c16.5,-4.8 22.4,-23.4 11.9,-37.4c-4.4,-5.9 -14.4,-9.6 -22.1,-8.2Zm47.5,-20.5c3.1,3 3.3,8.3 0.6,11.6c-2.8,3.5 -9.5,3.3 -12.7,-0.4c-2.8,-3.3 -3,-6.3 -0.7,-9.7c2.3,-3.4 3.3,-4 7.1,-4c2.2,0 4.1,0.8 5.7,2.5Z" style="fill-rule:nonzero;"/>
            </g>
        </g>
    </g>
</svg>
