<?xml version="1.0" encoding="UTF-8" standalone="no"?>
<!DOCTYPE svg PUBLIC "-//W3C//DTD SVG 1.1//EN" "http://www.w3.org/Graphics/SVG/1.1/DTD/svg11.dtd">
<svg width="100%" height="100%" viewBox="0 0 225 226" version="1.1" xmlns="http://www.w3.org/2000/svg" xmlns:xlink="http://www.w3.org/1999/xlink" xml:space="preserve" xmlns:serif="http://www.serif.com/" style="fill-rule:evenodd;clip-rule:evenodd;stroke-linejoin:round;stroke-miterlimit:2;">
    <g transform="matrix(1,0,0,1,-1221,-421)">
        <g transform="matrix(0.1,0,0,-0.1,-39.8376,1860.43)">
            <g id="linkedin" transform="matrix(10,0,0,-10,0.300429,21142)">
                <path d="M1356.6,676.1c-36.1,5.3 -69.1,30.1 -85,63.9c-29.1,61.9 4.7,136.3 70.6,155.4c46.7,13.5 95.1,-3.7 124.1,-44.1c5.6,-7.8 13.4,-24.9 16.4,-36c2.4,-8.9 2.7,-11.5 2.7,-27.8c-0,-16.2 -0.3,-18.9 -2.6,-27.6c-13.7,-50.9 -58.3,-85.4 -109.7,-84.8c-5.8,0.1 -13.2,0.5 -16.5,1Zm67.6,84.3c5.1,2.2 10.5,7.2 12.9,11.9c4.1,7.9 4.9,15.5 4.9,47l-0,29.8l-13.7,-0.3l-13.8,-0.3l-0.5,-28.5c-0.5,-26 -0.7,-28.8 -2.5,-31.7c-2.6,-4.5 -7.6,-6.7 -13.2,-5.9c-6.8,0.9 -10.2,3.2 -12.6,8.4c-1.9,4.4 -2.1,6.6 -2.3,31.2l-0.2,26.5l-27.2,0.6l-0,-89.1l26,0l0.1,4.2c0.1,2.4 0.1,4.9 -0,5.5c-0.3,2.1 0.9,1.5 3.5,-1.6c2.8,-3.4 8,-6.8 13.3,-8.8c4.7,-1.8 20.2,-1.1 25.3,1.1Zm-86.2,-0.4l-0,89l-27,0l-0,-89l27,0Zm-4.1,-41.1c13,9.3 5.1,30.6 -10.7,28.8c-15,-1.7 -19.5,-21.4 -6.6,-29.4c5,-3.1 12.5,-2.8 17.3,0.6Z" style="fill-rule:nonzero;"/>
            </g>
        </g>
    </g>
</svg>
