<?xml version="1.0" encoding="UTF-8" standalone="no"?>
<!DOCTYPE svg PUBLIC "-//W3C//DTD SVG 1.1//EN" "http://www.w3.org/Graphics/SVG/1.1/DTD/svg11.dtd">
<svg width="100%" height="100%" viewBox="0 0 226 225" version="1.1" xmlns="http://www.w3.org/2000/svg" xmlns:xlink="http://www.w3.org/1999/xlink" xml:space="preserve" xmlns:serif="http://www.serif.com/" style="fill-rule:evenodd;clip-rule:evenodd;stroke-linejoin:round;stroke-miterlimit:2;">
    <g transform="matrix(1,0,0,1,-100,-421)">
        <g transform="matrix(0.1,0,0,-0.1,-39.8376,1860.43)">
            <g id="pinterest" transform="matrix(10,0,0,-10,0.300429,21142)">
                <path d="M234.9,676c-22.6,3.8 -45.6,15.7 -61.8,31.9c-39.7,39.7 -43.8,103.4 -9.6,148.1c9.2,12 25.6,25.6 39,32.3c9.8,4.8 9,5.8 9,-11.6l-0,-15.2l13.6,-56l-1.7,-7.9c-3.4,-16.4 1.1,-30.2 11.8,-35.7c6.3,-3.2 14.7,-1.8 18.2,3.2c4.7,6.7 4.2,13 -2.6,35.6c-3.1,10.6 -3.9,14.6 -3.6,18.5c0.9,9.2 7.2,14.3 17.4,14.2c20,-0.2 34.4,-21.2 34.4,-50c-0,-21.1 -7.8,-34.3 -25.2,-42.4c-22.7,-10.6 -51.6,-2.5 -64.9,18.1c-9.5,14.8 -9.7,36.1 -0.5,50l2.5,3.7l-1.9,7.2c-1,4 -2.3,7.7 -2.8,8.2c-2.7,2.7 -13.3,-7 -18.6,-17.1c-9.2,-17.6 -8.8,-39.3 1.1,-58.4c5.5,-10.7 17.4,-22.3 28.4,-27.5c13.6,-6.6 19,-7.7 37.4,-7.7c15.4,0 16.3,0.2 24.8,3.2c11.6,4.1 18.6,8.4 26.7,16.4c7.6,7.6 14.1,19 16.5,29c1.9,8.4 1.9,24 -0.1,33.7c-6.4,31 -28.7,51.5 -56,51.6c-7.2,-0 -8.9,-0.4 -14.7,-3.2c-3.6,-1.8 -7.7,-4.6 -9,-6.2l-2.5,-2.9l-3.1,12.2c-5.3,20.2 -8.6,28.6 -15.7,39.8c-1.3,2.1 -2,4 -1.6,4.2c0.4,0.3 4.3,1.3 8.7,2.3c6.2,1.5 11.8,1.9 25,1.8c15,-0 18.1,-0.3 26.6,-2.6c20.9,-5.6 37.6,-15.2 52,-29.7c17,-17.1 27,-36.2 31.5,-59.9c2.4,-13 1.5,-35.3 -2,-48.7c-3.1,-11.9 -11.5,-29.3 -18.5,-38.6c-17.4,-22.8 -42.9,-38.6 -70.5,-43.4c-9.3,-1.6 -29.6,-1.9 -37.7,-0.5Z" style="fill-rule:nonzero;"/>
            </g>
        </g>
    </g>
</svg>
