<?xml version="1.0" encoding="UTF-8" standalone="no"?>
<!DOCTYPE svg PUBLIC "-//W3C//DTD SVG 1.1//EN" "http://www.w3.org/Graphics/SVG/1.1/DTD/svg11.dtd">
<svg width="100%" height="100%" viewBox="0 0 226 225" version="1.1" xmlns="http://www.w3.org/2000/svg" xmlns:xlink="http://www.w3.org/1999/xlink" xml:space="preserve" xmlns:serif="http://www.serif.com/" style="fill-rule:evenodd;clip-rule:evenodd;stroke-linejoin:round;stroke-miterlimit:2;">
    <g transform="matrix(1,0,0,1,-847,-748)">
        <g transform="matrix(0.1,0,0,-0.1,-39.8376,1860.43)">
            <g id="snapchat" transform="matrix(10,0,0,-10,0.300429,21142)">
                <path d="M979.7,1003.5c-40,7.6 -73.2,36.4 -86.3,74.8c-7.6,22.4 -7.5,49.3 0.2,72.7c18.6,55.7 80,87.7 137.1,71.5c60.8,-17.2 95.4,-81.6 76.6,-142c-7,-22.4 -23.2,-44.6 -42.3,-58.2c-9.4,-6.6 -25.3,-14 -36.7,-16.9c-12.5,-3.3 -36.2,-4.2 -48.6,-1.9Zm37.8,43.8c15.5,7.2 22.1,20 21.3,41.9c-0.1,5.3 -0,9.9 0.4,10.3c0.3,0.4 3.6,-0.3 7.2,-1.5c6.2,-2.1 6.7,-2.2 9.1,-0.6c1.5,1 2.5,2.6 2.5,4.1c-0,2.5 -1.8,4.2 -12,11.3c-4.9,3.4 -5.5,4.2 -5.3,7.1c0.4,9.9 12.5,23.6 28.4,32.4l3.4,1.9l-2.9,2.3c-1.5,1.2 -4.7,2.8 -7,3.4c-8.5,2.4 -9.5,3.2 -10.6,7.1c-1,3.8 -1.1,3.9 -6.8,4.5c-3.1,0.3 -7.6,0.8 -9.9,1.1c-2.4,0.3 -9,2.9 -14.7,5.9c-12.7,6.5 -18.6,7.5 -28.4,5.1c-3.6,-0.9 -9.7,-3.4 -13.4,-5.7c-6.8,-4 -11.6,-5.3 -23.1,-6.5c-5.2,-0.5 -5.9,-0.9 -6.8,-3.2c-1.7,-4.9 -2.5,-5.6 -9,-7.7c-7.9,-2.6 -10.9,-4.2 -10.9,-5.8c-0,-0.7 2.8,-2.7 6.3,-4.6c15.1,-8.3 29,-28.7 23.3,-34.3c-0.7,-0.8 -4.2,-3.3 -7.8,-5.6c-7.5,-4.9 -9.6,-7.9 -7.9,-11.1c1.7,-3.1 5.1,-3.5 11.2,-1.2c3,1.2 5.9,2.1 6.5,2.1c0.8,0 1.3,-4.7 1.6,-15.3c0.3,-10.9 0.9,-16.2 2.1,-18.7c4.3,-9.6 12.4,-16.8 22.6,-20.2c8.6,-2.8 22.7,-2.1 30.6,1.5Z" style="fill-rule:nonzero;"/>
            </g>
        </g>
    </g>
</svg>
