<?xml version="1.0" encoding="UTF-8" standalone="no"?>
<!DOCTYPE svg PUBLIC "-//W3C//DTD SVG 1.1//EN" "http://www.w3.org/Graphics/SVG/1.1/DTD/svg11.dtd">
<svg width="100%" height="100%" viewBox="0 0 225 225" version="1.1" xmlns="http://www.w3.org/2000/svg" xmlns:xlink="http://www.w3.org/1999/xlink" xml:space="preserve" xmlns:serif="http://www.serif.com/" style="fill-rule:evenodd;clip-rule:evenodd;stroke-linejoin:round;stroke-miterlimit:2;">
    <g transform="matrix(1,0,0,1,-1595,-93)">
        <g transform="matrix(0.1,0,0,-0.1,-39.8376,1860.43)">
            <g id="twitter" transform="matrix(10,0,0,-10,0.300429,21142)">
                <path d="M1727.5,348.1c-16.4,3.2 -35.1,11.4 -47.6,20.8c-8.2,6.3 -20.3,18.9 -25.9,27.1c-6.2,9.1 -12.7,23.5 -15.7,34.7c-2.5,8.9 -2.7,11.5 -2.7,28.3c-0.1,17.2 0.1,19.2 2.7,28.5c11.8,43.1 46.5,74.9 89.7,82.6c10.4,1.8 29.6,1.6 40.3,-0.5c49,-9.4 85.4,-49.4 90.8,-99.6c5.2,-47.5 -22.8,-95 -67.1,-114.1c-15.1,-6.5 -23.3,-8.1 -42.5,-8.5c-9.3,-0.1 -19.2,0.2 -22,0.7Zm62.6,59.4c2.4,0.9 6,2.9 8.1,4.5l3.6,2.9l5.4,-1.5c2.9,-0.9 7,-2.5 9.1,-3.5c2,-1.1 3.7,-1.7 3.7,-1.4c0,1.8 -3.8,7.6 -7.3,11.3l-4.2,4.2l3.5,-0.6c1.9,-0.4 5.3,-1.3 7.4,-2.1c2.2,-0.7 4.1,-1.1 4.3,-0.9c0.2,0.2 -2.8,3.7 -6.6,7.7l-7.1,7.4l-1,10c-1.2,12.5 -3.8,21.7 -9,32.1c-8.5,16.8 -22.1,30.3 -38.5,38c-13.1,6.1 -20.6,7.7 -36,7.8c-15.8,0.1 -24.2,-1.7 -37,-7.8l-9,-4.2l8.8,-0.7c9.8,-0.7 22.5,-4.6 29.7,-9.2l4.4,-2.8l-5.2,-1.3c-7,-1.8 -10.1,-3.5 -14.6,-8.1c-3,-3 -7.6,-10 -7.6,-11.5c-0,-0.2 2,-0.2 4.4,0c2.5,0.2 5.2,0 6.1,-0.5c1.3,-0.8 0.9,-1.2 -2.3,-2.1c-5.2,-1.6 -12.2,-7.8 -15,-13.4c-2.2,-4.6 -4.5,-13.8 -3.3,-13.8c0.3,0 2.8,0.7 5.5,1.5c2.7,0.8 5.3,1.5 5.9,1.5c0.5,0 -1.1,-2.3 -3.6,-5c-5.3,-5.9 -7.7,-12.1 -7.7,-20c-0,-5.5 1.4,-11.5 3.1,-13.4c0.5,-0.5 4,2.1 8.3,6.2c12.8,12.1 31.1,20.9 47.4,22.8l6.2,0.7l-0,-6.9c-0,-17.2 11.9,-29.1 29.1,-29.3c3.7,-0.1 8.6,0.6 11,1.4Z" style="fill-rule:nonzero;"/>
            </g>
        </g>
    </g>
</svg>
